# xmcd CD database file
#
# Track frame offsets:
#	150
#	14709
#	37299
#	49247
#	66899
#	78706
#	92812
#	111559
#	124372
#	134201
#
# Disc length: 2184 seconds
#
# Revision: 0
# Processed by: cddbd v1.5.2PL0 Copyright (c) Steve Scherf et al.
# Submitted via: CDex 1.51
#
DISCID=a508860a
DTITLE=The Latin Jazz Quintet - The Latin Jazz Quintet
DYEAR=1960
DGENRE=Jazz
TTITLE0=You 're The Cutest One
TTITLE1=Speak Low
TTITLE2=I Got Rhythm
TTITLE3=Night In Tunisia
TTITLE4=Cha Cha King
TTITLE5=I Wish I Were In Love Again
TTITLE6=You Don't Know What Love Is
TTITLE7=Lover
TTITLE8=Mangorina
TTITLE9=April Rain
EXTD=YEAR: 1960
EXTT0=
EXTT1=
EXTT2=
EXTT3=
EXTT4=
EXTT5=
EXTT6=
EXTT7=
EXTT8=
EXTT9=
PLAYORDER=
